<svg width="256" height="256" viewBox="0 0 256 256" fill="none" xmlns="http://www.w3.org/2000/svg">
<path d="M134.514 62.147C154.881 72.012 175.287 81.8034 195.726 91.5194C206.827 96.8003 217.866 102.21 229 107.421C229 107.702 229 107.983 229 108.273C227.871 109.032 226.874 109.546 225.579 109.976C224.2 110.615 222.827 111.263 221.457 111.918C219.256 112.957 219.256 112.957 218.309 112.957C218.167 113.238 218.026 113.519 217.881 113.809C216.613 114.495 215.401 115.058 214.032 115.513C213.308 116.079 212.414 117.216 211.466 117.216C211.325 130.707 211.184 144.198 211.038 158.098C211.603 158.38 212.167 158.661 212.749 158.95C213.949 160.017 214.152 160.971 214.246 162.517C214.197 164.51 213.141 165.64 211.894 167.042C212.018 169.035 212.993 170.876 213.781 172.688C215.119 175.819 216.45 178.955 217.818 182.074C218.785 184.357 218.785 184.357 218.309 185.779C212.099 185.779 205.889 185.779 199.491 185.779C199.491 183.893 200.25 182.357 200.935 180.616C201.491 179.153 201.859 177.148 203.34 176.41C203.617 175.155 203.669 173.858 203.768 172.578C204.191 172.437 204.615 172.297 205.051 172.152C205.609 170.914 205.898 169.612 206.266 168.311C206.52 166.774 205.708 166.25 204.623 165.338C203.824 163.503 203.664 162.685 204.276 160.76C204.957 159.545 205.788 158.642 206.762 157.673C206.621 157.673 206.479 157.673 206.334 157.673C206.122 138.911 206.122 138.911 205.906 119.771C204.043 120.332 202.302 121.475 200.347 121.475C200.206 121.896 200.065 122.318 199.919 122.752C199.496 122.752 199.072 122.752 198.636 122.752C197.129 124.257 195.421 124.551 193.504 125.307C193.363 125.588 193.222 125.869 193.077 126.159C192.364 126.302 191.651 126.444 190.938 126.585C189.976 126.999 189.023 127.435 188.078 127.889C185.468 129.14 185.468 129.14 184.523 129.14C184.382 129.421 184.241 129.702 184.096 129.992C181.971 131.154 179.704 132.055 177.681 133.399C177.257 133.399 176.834 133.399 176.398 133.399C175.962 133.816 175.533 134.241 175.115 134.676C174.833 134.676 174.55 134.676 174.26 134.676C174.118 134.957 173.977 135.238 173.832 135.528C172.245 135.768 171.138 136.031 169.983 137.231C169.271 137.377 168.558 137.519 167.845 137.657C167.27 138.078 166.7 138.503 166.134 138.935C165.711 138.935 165.287 138.935 164.851 138.935C163.833 139.995 162.887 140.362 161.43 140.638C159.526 141.721 157.271 143.193 155.015 143.193C154.874 143.615 154.733 144.037 154.587 144.471C154.164 144.471 153.74 144.471 153.304 144.471C151.971 144.819 151.971 144.819 150.738 145.323C150.597 145.604 150.456 145.885 150.311 146.174C149.043 146.86 147.831 147.423 146.462 147.878C142.665 149.702 138.923 152.083 134.915 153.414C133.836 153.902 133.197 154.273 132.349 155.117C131.926 155.117 131.502 155.117 131.066 155.117C130.344 155.73 130.344 155.73 129.783 156.395C124.112 155.092 118.629 151.947 113.532 149.155C113.25 149.296 112.967 149.436 112.677 149.581C111.218 147.997 108.92 146.458 106.689 146.6C106.253 146.184 105.825 145.757 105.406 145.323C101.702 144.093 98.4856 141.764 94.7149 140.638C94.7149 140.357 94.7149 140.076 94.7149 139.787C90.3164 138.69 86.6389 135.967 82.3128 134.676C82.3128 134.395 82.3128 134.114 82.3128 133.824C77.2541 132.359 72.785 129.948 68.2 127.437C67.9177 127.577 67.6355 127.718 67.3447 127.862C65.6722 126.047 63.3234 124.978 60.9298 124.456C60.9298 124.175 60.9298 123.893 60.9298 123.604C56.5313 122.507 52.8538 119.784 48.5277 118.494C48.5277 118.212 48.5277 117.931 48.5277 117.642C47.682 117.331 46.8253 117.048 45.9617 116.79C45.6794 116.931 45.3972 117.071 45.1064 117.216C45.1064 116.794 45.1064 116.373 45.1064 115.938C42.7475 115.645 40.9339 114.064 38.6664 113.596C37.8362 113.383 37.8362 113.383 36.5532 112.532C33.7417 111.041 30.8477 109.693 28 108.273C28 107.992 28 107.711 28 107.421C36.1812 103.549 44.2778 99.5074 52.4484 95.6136C76.6191 84.0931 101.003 72.8946 124.924 60.8609C128.667 59.044 130.979 60.4065 134.514 62.147Z" fill="#7fd17e"/>
<path d="M72.4766 133.399C75.3107 134.253 77.9178 135.372 80.5654 136.686C95.8425 144.167 111.257 151.375 126.463 158.997C129.21 159.878 131.532 158.418 133.951 157.21C149.668 149.514 165.474 142.001 181.201 134.326C182.324 133.851 183.329 133.617 184.523 133.399C184.599 142.286 184.667 151.176 184.686 160.064C184.705 164.892 185.296 169.526 182.813 173.855C181.91 175.482 180.782 176.948 179.692 178.455C174.994 184.44 167.834 186.316 161.857 190.464C159.246 190.464 156.629 191.627 154.145 192.398C153.304 192.593 153.304 192.593 151.594 192.593C151.452 193.015 151.311 193.436 151.166 193.871C150.743 193.73 150.319 193.59 149.883 193.445C148.882 193.563 147.883 193.703 146.889 193.871C146.889 194.152 146.889 194.433 146.889 194.722C146.466 194.582 146.043 194.441 145.606 194.297C145.465 194.437 145.324 194.578 145.179 194.722C143.513 194.692 142.282 194.474 140.902 195.574C135.731 194.698 130.161 196.603 124.651 195.574C124.651 195.715 124.651 195.855 124.651 196C123.24 196 121.829 196 120.374 196C120.374 195.719 120.374 195.438 120.374 195.148C117.06 195.148 113.804 194.195 110.538 194.297C108.402 193.729 106.356 193.352 104.123 193.445C103.982 193.164 103.841 192.883 103.696 192.593C101.026 191.602 98.0155 190.464 95.1426 190.464C90.9558 187.652 85.9228 186.408 82.1624 182.943C81.4262 182.279 81.4262 182.279 80.1745 181.947C80.1745 181.525 80.1745 181.103 80.1745 180.669C79.7511 180.669 79.3277 180.669 78.8915 180.669C78.8915 180.388 78.8915 180.107 78.8915 179.817C78.4681 179.677 78.0447 179.536 77.6085 179.391C76.5411 177.772 75.5429 176.142 74.4011 174.567C72.8191 171.761 72.2857 169.025 72.3309 165.839C72.3252 155.026 72.4074 144.211 72.4766 133.399Z" fill="#7fd17e"/>
</svg>
