<svg width="256" height="256" viewBox="0 0 256 256" fill="none" xmlns="http://www.w3.org/2000/svg">
<path d="M135.66 44.7153C161.599 57.1917 187.59 69.5748 213.621 81.8628C227.759 88.5415 241.819 95.3827 256 101.974C256 102.329 256 102.685 256 103.051C254.563 104.011 253.292 104.662 251.643 105.205C249.887 106.013 248.138 106.832 246.393 107.662C243.589 108.975 243.589 108.975 242.383 108.975C242.203 109.331 242.023 109.686 241.838 110.053C240.224 110.92 238.68 111.632 236.936 112.207C236.014 112.923 234.875 114.361 233.668 114.361C233.488 131.424 233.309 148.486 233.123 166.066C233.842 166.421 234.561 166.777 235.302 167.143C236.831 168.493 237.089 169.698 237.209 171.654C237.146 174.174 235.802 175.603 234.213 177.376C234.372 179.897 235.613 182.226 236.617 184.517C238.321 188.477 240.016 192.443 241.758 196.388C242.989 199.275 242.989 199.275 242.383 201.074C234.474 201.074 226.565 201.074 218.417 201.074C218.417 198.689 219.383 196.745 220.255 194.544C220.964 192.694 221.432 190.158 223.319 189.225C223.672 187.637 223.738 185.997 223.864 184.378C224.403 184.2 224.942 184.022 225.498 183.839C226.209 182.274 226.576 180.627 227.045 178.981C227.369 177.038 226.334 176.374 224.953 175.222C223.935 172.901 223.731 171.867 224.511 169.432C225.378 167.895 226.437 166.753 227.677 165.527C227.497 165.527 227.317 165.527 227.132 165.527C226.862 141.8 226.862 141.8 226.587 117.593C224.214 118.302 221.997 119.747 219.506 119.747C219.327 120.28 219.147 120.814 218.962 121.363C218.422 121.363 217.883 121.363 217.328 121.363C215.408 123.266 213.233 123.638 210.791 124.595C210.612 124.95 210.432 125.305 210.247 125.672C209.339 125.853 208.431 126.032 207.523 126.21C206.298 126.734 205.084 127.286 203.881 127.86C200.557 129.442 200.557 129.442 199.353 129.442C199.173 129.797 198.994 130.153 198.809 130.519C196.102 131.989 193.216 133.129 190.638 134.828C190.099 134.828 189.56 134.828 189.004 134.828C188.449 135.355 187.903 135.894 187.37 136.443C187.011 136.443 186.651 136.443 186.281 136.443C186.101 136.799 185.921 137.154 185.736 137.521C183.715 137.825 182.306 138.157 180.834 139.675C179.927 139.859 179.019 140.038 178.111 140.214C177.379 140.745 176.652 141.283 175.932 141.829C175.393 141.829 174.853 141.829 174.298 141.829C173.001 143.17 171.796 143.634 169.94 143.984C167.516 145.354 164.644 147.215 161.77 147.215C161.59 147.748 161.411 148.282 161.226 148.831C160.686 148.831 160.147 148.831 159.591 148.831C157.894 149.271 157.894 149.271 156.323 149.908C156.144 150.264 155.964 150.619 155.779 150.985C154.164 151.853 152.62 152.565 150.877 153.14C146.041 155.446 141.276 158.459 136.17 160.141C134.796 160.759 133.983 161.227 132.902 162.296C132.363 162.296 131.824 162.296 131.268 162.296C130.349 163.07 130.349 163.07 129.634 163.911C122.412 162.263 115.428 158.286 108.936 154.755C108.577 154.933 108.217 155.111 107.847 155.294C105.989 153.29 103.062 151.344 100.221 151.524C99.6651 150.997 99.1207 150.458 98.5872 149.908C93.8687 148.353 89.7728 145.408 84.9702 143.984C84.9702 143.628 84.9702 143.273 84.9702 142.906C79.3681 141.52 74.6844 138.075 69.1745 136.443C69.1745 136.088 69.1745 135.733 69.1745 135.366C62.7316 133.513 57.0396 130.463 51.2 127.287C50.8405 127.465 50.481 127.643 50.1106 127.826C47.9805 125.529 44.989 124.178 41.9404 123.517C41.9404 123.162 41.9404 122.806 41.9404 122.44C36.3383 121.054 31.6546 117.609 26.1447 115.977C26.1447 115.622 26.1447 115.266 26.1447 114.9C25.0676 114.506 23.9765 114.149 22.8766 113.823C22.5171 114.001 22.1576 114.178 21.7872 114.361C21.7872 113.828 21.7872 113.295 21.7872 112.746C18.7829 112.374 16.4731 110.375 13.5851 109.783C12.5277 109.514 12.5277 109.514 10.8936 108.437C7.31285 106.551 3.62692 104.846 0 103.051C0 102.696 0 102.34 0 101.974C10.4199 97.0768 20.7319 91.9652 31.1383 87.0407C61.9228 72.4707 92.9785 58.3078 123.445 43.0888C128.212 40.7909 131.158 42.5141 135.66 44.7153Z" fill="#788FC5"/>
<path d="M56.6468 134.828C60.2565 135.908 63.5768 137.324 66.9489 138.985C86.4063 148.446 106.039 157.562 125.406 167.202C128.905 168.316 131.862 166.469 134.943 164.942C154.96 155.208 175.091 145.708 195.121 136C196.551 135.399 197.832 135.103 199.353 134.828C199.45 146.068 199.536 157.311 199.56 168.552C199.584 174.658 200.337 180.518 197.174 185.993C196.024 188.051 194.588 189.905 193.2 191.811C187.217 199.38 178.097 201.753 170.485 206.998C167.159 206.998 163.826 208.469 160.663 209.444C159.591 209.691 159.591 209.691 157.413 209.691C157.233 210.225 157.053 210.758 156.868 211.307C156.329 211.129 155.79 210.952 155.234 210.768C153.959 210.918 152.687 211.095 151.421 211.307C151.421 211.663 151.421 212.018 151.421 212.384C150.882 212.207 150.343 212.029 149.787 211.846C149.607 212.023 149.428 212.201 149.243 212.384C147.122 212.345 145.553 212.07 143.796 213.461C137.21 212.353 130.116 214.763 123.098 213.461C123.098 213.639 123.098 213.817 123.098 214C121.3 214 119.503 214 117.651 214C117.651 213.645 117.651 213.289 117.651 212.923C113.43 212.923 109.283 211.718 105.123 211.846C102.403 211.128 99.7962 210.651 96.9532 210.768C96.7734 210.413 96.5937 210.058 96.4085 209.691C93.0078 208.437 89.174 206.998 85.5149 206.998C80.1825 203.442 73.7724 201.869 68.983 197.487C68.0453 196.646 68.0453 196.646 66.4511 196.227C66.4511 195.693 66.4511 195.16 66.4511 194.611C65.9118 194.611 65.3726 194.611 64.817 194.611C64.817 194.255 64.817 193.9 64.817 193.534C64.2778 193.356 63.7385 193.178 63.183 192.995C61.8234 190.947 60.5521 188.886 59.0979 186.894C57.083 183.345 56.4036 179.885 56.4613 175.855C56.454 162.18 56.5586 148.502 56.6468 134.828Z" fill="#788FC5"/>
</svg>
